<svg xmlns:xlink="http://www.w3.org/1999/xlink" viewBox="0 0 3750 1609.5"><defs><clipPath id="ac37f31a01"><path d="M 0.582031 0 L 3749.417969 0 L 3749.417969 1609 L 0.582031 1609 Z M 0.582031 0" /></clipPath><clipPath id="a93719cd83"><path d="M 2333 582.335938 L 2584.910156 582.335938 L 2584.910156 927 L 2333 927 Z M 2333 582.335938" /></clipPath><clipPath id="616490623c"><path d="M 2479 212.0625 L 2709.78125 212.0625 L 2709.78125 519 L 2479 519 Z M 2479 212.0625" /></clipPath><clipPath id="c5fbfa4d8e"><path d="M 2107.230469 112.609375 L 2350 112.609375 L 2350 383 L 2107.230469 383 Z M 2107.230469 112.609375" /></clipPath><clipPath id="cb3e1bbbac"><path d="M 1745.144531 60 L 1985.070312 60 L 1985.070312 337 L 1745.144531 337 Z M 1745.144531 60" /></clipPath><clipPath id="95fedf2591"><path d="M 2724.207031 139 L 3749.417969 139 L 3749.417969 1093 L 2724.207031 1093 Z M 2724.207031 139" /></clipPath><clipPath id="f927196b86"><path d="M 2913.304688 39 L 3749.417969 39 L 3749.417969 1165.898438 L 2913.304688 1165.898438 Z M 2913.304688 39" /></clipPath><clipPath id="d7d411960d"><path d="M 494 946 L 3178.765625 946 L 3178.765625 1609 L 494 1609 Z M 494 946" /></clipPath><clipPath id="ecbb9a9a8d"><path d="M 2747.246094 437 L 3079.390625 437 L 3079.390625 1312.535156 L 2747.246094 1312.535156 Z M 2747.246094 437" /></clipPath><clipPath id="b713c94fcb"><path d="M 2947 561.375 L 3749.417969 561.375 L 3749.417969 1364 L 2947 1364 Z M 2947 561.375" /></clipPath><clipPath id="83051fc767"><path d="M 3397.320312 317.40625 L 3643.992188 317.40625 L 3643.992188 847 L 3397.320312 847 Z M 3397.320312 317.40625" /></clipPath><clipPath id="d791b3a99b"><path d="M 2024.492188 886.296875 L 2803.5 886.296875 L 2803.5 1355.652344 L 2024.492188 1355.652344 Z M 2024.492188 886.296875" /></clipPath><clipPath id="930818587b"><path d="M 1194 148.386719 L 1483.667969 148.386719 L 1483.667969 301 L 1194 301 Z M 1194 148.386719" /></clipPath><clipPath id="16b9132983"><path d="M 874.003906 221.167969 L 2093 221.167969 L 2093 1305 L 874.003906 1305 Z M 874.003906 221.167969" /></clipPath><clipPath id="a85e24c20c"><path d="M 1632.089844 934.875 L 2066.957031 934.875 L 2066.957031 1312 L 1632.089844 1312 Z M 1632.089844 934.875" /></clipPath><clipPath id="848256639d"><path d="M 1349.429688 1146 L 2259.644531 1146 L 2259.644531 1609 L 1349.429688 1609 Z M 1349.429688 1146" /></clipPath><clipPath id="f3bc0a6d17"><path d="M 1836.367188 1166 L 2134 1166 L 2134 1363.703125 L 1836.367188 1363.703125 Z M 1836.367188 1166" /></clipPath><clipPath id="626e04be19"><path d="M 2539.175781 707.257812 L 2780.601562 707.257812 L 2780.601562 957.679688 L 2539.175781 957.679688 Z M 2539.175781 707.257812" /></clipPath><clipPath id="1af194a9f0"><path d="M 2045.269531 547 L 2350 547 L 2350 926.761719 L 2045.269531 926.761719 Z M 2045.269531 547" /></clipPath><clipPath id="758756b524"><path d="M 967.277344 27 L 1183.960938 27 L 1183.960938 298 L 967.277344 298 Z M 967.277344 27" /></clipPath><clipPath id="4aca794c1d"><path d="M 75.421875 60 L 643.746094 60 L 643.746094 957 L 75.421875 957 Z M 75.421875 60" /></clipPath><clipPath id="aa9502e519"><path d="M 1549 852.105469 L 1779.570312 852.105469 L 1779.570312 1394.9375 L 1549 1394.9375 Z M 1549 852.105469" /></clipPath><clipPath id="757749de63"><path d="M 318.449219 363 L 852 363 L 852 1330 L 318.449219 1330 Z M 318.449219 363" /></clipPath><clipPath id="73cb4ef685"><path d="M 1733 39.878906 L 2007 39.878906 L 2007 377.273438 L 1733 377.273438 Z M 1733 39.878906" /></clipPath><clipPath id="2254deb642"><path d="M 1694.222656 104 L 1730 104 L 1730 120 L 1694.222656 120 Z M 1694.222656 104" /></clipPath><clipPath id="7d14631705"><path d="M 2104 112.609375 L 2361 112.609375 L 2361 429.761719 L 2104 429.761719 Z M 2104 112.609375" /></clipPath><clipPath id="4fda8c3aa8"><path d="M 2377 280 L 2396.949219 280 L 2396.949219 314 L 2377 314 Z M 2377 280" /></clipPath><clipPath id="dc02e2ca1a"><path d="M 2067.050781 173 L 2100 173 L 2100 188 L 2067.050781 188 Z M 2067.050781 173" /></clipPath><clipPath id="87ae820115"><path d="M 2469 208.527344 L 2721 208.527344 L 2721 519.683594 L 2469 519.683594 Z M 2469 208.527344" /></clipPath><clipPath id="6f1c40be3c"><path d="M 2432.367188 268 L 2465 268 L 2465 283 L 2432.367188 283 Z M 2432.367188 268" /></clipPath><clipPath id="f7dc19c6dc"><path d="M 516.042969 303.476562 L 967 303.476562 L 967 754.835938 L 516.042969 754.835938 Z M 516.042969 303.476562" /></clipPath><clipPath id="b98f3266c2"><path d="M 502 702.117188 L 601 702.117188 L 601 1058 L 502 1058 Z M 502 702.117188" /></clipPath><clipPath id="2d849bc8fa"><path d="M 388 1034 L 731 1034 L 731 1303.433594 L 388 1303.433594 Z M 388 1034" /></clipPath><clipPath id="e4ee976b4c"><path d="M 495 702.117188 L 837 702.117188 L 837 776 L 495 776 Z M 495 702.117188" /></clipPath><clipPath id="1e6e48693b"><path d="M 360 1178 L 859.71875 1178 L 859.71875 1552.703125 L 360 1552.703125 Z M 360 1178" /></clipPath><mask id="93af9e99b4"><g filter="url(#3de75c5de4)"><g filter="url(#b596e23191)" transform="matrix(1.19683 0 0 1.19717 -20.73 0)"><image xlink:href="/scene/masks/mask-01.png" width="3168" height="1344" xmlns:xlink="http://www.w3.org/1999/xlink" /></g></g></mask><mask id="41a4b4b07e"><g filter="url(#3de75c5de4)"><g filter="url(#b596e23191)" transform="matrix(.24271 0 0 .24305 2332.988 582.337)"><image xlink:href="/scene/masks/mask-02.png" width="1109" height="1419" xmlns:xlink="http://www.w3.org/1999/xlink" /></g></g></mask><mask id="aafe3016fb"><g filter="url(#3de75c5de4)"><g filter="url(#b596e23191)" transform="matrix(.18975 0 0 .18964 2478.852 212.063)"><image xlink:href="/scene/masks/mask-03.png" width="1217" height="1621" xmlns:xlink="http://www.w3.org/1999/xlink" /></g></g></mask><mask id="a5d11e41d8"><g filter="url(#3de75c5de4)"><g filter="url(#b596e23191)" transform="matrix(.1996 0 0 .19981 2107.23 59.164)"><image xlink:href="/scene/masks/mask-04.png" width="1217" height="1621" xmlns:xlink="http://www.w3.org/1999/xlink" /></g></g></mask><mask id="7717677657"><g filter="url(#3de75c5de4)"><g filter="url(#b596e23191)" transform="matrix(.17097 0 0 .17114 1690.12 60)"><image xlink:href="/scene/masks/mask-05.png" width="2162" height="1621" xmlns:xlink="http://www.w3.org/1999/xlink" /></g></g></mask><mask id="3a92f6c9b2"><g filter="url(#3de75c5de4)"><g filter="url(#b596e23191)" transform="matrix(.80722 0 0 .80749 2724.206 138.834)"><image xlink:href="/scene/masks/mask-06.png" width="1331" height="1182" xmlns:xlink="http://www.w3.org/1999/xlink" /></g></g></mask><mask id="0c2e711569"><g filter="url(#3de75c5de4)"><g filter="url(#b596e23191)" transform="matrix(.78987 0 0 .79025 2913.303 38.997)"><image xlink:href="/scene/masks/mask-07.png" width="1103" height="1426" xmlns:xlink="http://www.w3.org/1999/xlink" /></g></g></mask><mask id="1ddb24811a"><g filter="url(#3de75c5de4)"><g filter="url(#b596e23191)" transform="matrix(1.23615 0 0 1.2365 493.85 945.516)"><image xlink:href="/scene/masks/mask-08.png" width="2172" height="724" xmlns:xlink="http://www.w3.org/1999/xlink" /></g></g></mask><mask id="9feb6b2571"><g filter="url(#3de75c5de4)"><g filter="url(#b596e23191)" transform="matrix(.45042 0 0 .45048 2731.104 436.807)"><image xlink:href="/scene/masks/mask-09.png" width="809" height="1944" xmlns:xlink="http://www.w3.org/1999/xlink" /></g></g></mask><mask id="b08059f232"><g filter="url(#3de75c5de4)"><g filter="url(#b596e23191)" transform="translate(2946.756 561.374)scale(.64035)"><image xlink:href="/scene/masks/mask-10.png" width="1254" height="1254" xmlns:xlink="http://www.w3.org/1999/xlink" /></g></g></mask><mask id="20877bba1a"><g filter="url(#3de75c5de4)"><g filter="url(#b596e23191)" transform="matrix(.28817 0 0 .2884 3397.32 317.407)"><image xlink:href="/scene/masks/mask-11.png" width="856" height="1838" xmlns:xlink="http://www.w3.org/1999/xlink" /></g></g></mask><mask id="0300e878fa"><g filter="url(#3de75c5de4)"><g filter="url(#b596e23191)" transform="matrix(.48236 0 0 .48188 2024.492 886.299)"><image xlink:href="/scene/masks/mask-12.png" width="1615" height="974" xmlns:xlink="http://www.w3.org/1999/xlink" /></g></g></mask><mask id="5686e4f8b7"><g filter="url(#3de75c5de4)"><g filter="url(#b596e23191)" transform="matrix(.18672 0 0 .18653 1193.507 148.387)"><image xlink:href="/scene/masks/mask-13.png" width="1554" height="820" xmlns:xlink="http://www.w3.org/1999/xlink" /></g></g></mask><mask id="6bc58e034b"><g filter="url(#3de75c5de4)"><g filter="url(#b596e23191)" transform="matrix(.91663 0 0 .91645 874.006 221.168)"><image xlink:href="/scene/masks/mask-14.png" width="1330" height="1183" xmlns:xlink="http://www.w3.org/1999/xlink" /></g></g></mask><mask id="78851d6391"><g filter="url(#3de75c5de4)"><g filter="url(#b596e23191)" transform="matrix(.91663 0 0 .91645 848.073 228.195)"><image xlink:href="/scene/masks/mask-15.png" width="1330" height="1183" xmlns:xlink="http://www.w3.org/1999/xlink" /></g></g></mask><mask id="f2b59f8453"><g filter="url(#3de75c5de4)"><g filter="url(#b596e23191)" transform="matrix(.52523 0 0 .52492 1349.428 1145.72)"><image xlink:href="/scene/masks/mask-16.png" width="1733" height="907" xmlns:xlink="http://www.w3.org/1999/xlink" /></g></g></mask><mask id="4931ac1a26"><g filter="url(#3de75c5de4)"><g filter="url(#b596e23191)" transform="matrix(.19379 0 0 .1933 1836.366 1165.765)"><image xlink:href="/scene/masks/mask-17.png" width="1536" height="1024" xmlns:xlink="http://www.w3.org/1999/xlink" /></g></g></mask><mask id="eab80efc79"><g filter="url(#3de75c5de4)"><g filter="url(#b596e23191)" transform="matrix(.19596 0 0 .1961 2539.177 707.259)"><image xlink:href="/scene/masks/mask-18.png" width="1232" height="1277" xmlns:xlink="http://www.w3.org/1999/xlink" /></g></g></mask><mask id="9ff05ac880"><g filter="url(#3de75c5de4)"><g filter="url(#b596e23191)" transform="matrix(.27173 0 0 .27133 2045.27 546.629)"><image xlink:href="/scene/masks/mask-19.png" width="1123" height="1401" xmlns:xlink="http://www.w3.org/1999/xlink" /></g></g></mask><mask id="3200338848"><g filter="url(#3de75c5de4)"><g filter="url(#b596e23191)" transform="matrix(.19312 0 0 .1936 967.278 26.807)"><image xlink:href="/scene/masks/mask-20.png" width="1122" height="1402" xmlns:xlink="http://www.w3.org/1999/xlink" /></g></g></mask><mask id="8f910bdc98"><g filter="url(#3de75c5de4)"><g filter="url(#b596e23191)" transform="translate(75.423 60)scale(.56946)"><image xlink:href="/scene/masks/mask-21.png" width="998" height="1576" xmlns:xlink="http://www.w3.org/1999/xlink" /></g></g></mask><mask id="deb54ddda9"><g filter="url(#3de75c5de4)"><g filter="url(#b596e23191)" transform="matrix(.28265 0 0 .28228 1548.642 852.107)"><image xlink:href="/scene/masks/mask-22.png" width="817" height="1923" xmlns:xlink="http://www.w3.org/1999/xlink" /></g></g></mask><mask id="ecbdf9ded1"><g filter="url(#3de75c5de4)"><g filter="url(#b596e23191)" transform="matrix(.40259 0 0 .403 318.448 362.954)"><image xlink:href="/scene/masks/mask-23.png" width="1326" height="2400" xmlns:xlink="http://www.w3.org/1999/xlink" /></g></g></mask><mask id="3f8609e4cb"><g filter="url(#3de75c5de4)"><g filter="url(#b596e23191)" transform="translate(516.043 303.477)scale(.35994)"><image xlink:href="/scene/masks/mask-24.png" width="1254" height="1254" xmlns:xlink="http://www.w3.org/1999/xlink" /></g></g></mask><mask id="350b544010"><g filter="url(#3de75c5de4)"><g filter="url(#b596e23191)" transform="matrix(.34537 0 0 .3452 359.625 1177.822)"><image xlink:href="/scene/masks/mask-25.png" width="1448" height="1086" xmlns:xlink="http://www.w3.org/1999/xlink" /></g></g></mask><filter id="3de75c5de4" width="100%" height="100%" x="0%" y="0%"><feColorMatrix color-interpolation-filters="sRGB" values="0 0 0 0 1 0 0 0 0 1 0 0 0 0 1 0 0 0 1 0" /></filter><filter id="b596e23191" width="100%" height="100%" x="0%" y="0%"><feColorMatrix color-interpolation-filters="sRGB" values="0 0 0 0 1 0 0 0 0 1 0 0 0 0 1 0.2126 0.7152 0.0722 0 0" /></filter></defs><g clip-path="url(#a93719cd83)"><g mask="url(#41a4b4b07e)"><g id="scene-layer-sideboard-plant" data-scene-layer="sideboard-plant" transform="matrix(.24271 0 0 .24305 2332.988 582.337)"><image xlink:href="/scene/layers/sideboard-plant.webp" width="1109" height="1419" xmlns:xlink="http://www.w3.org/1999/xlink" /></g></g></g><g clip-path="url(#f927196b86)"><g mask="url(#0c2e711569)"><g id="scene-layer-right-plant" data-scene-layer="right-plant" transform="matrix(.78987 0 0 .79025 2913.303 38.997)"><image xlink:href="/scene/layers/right-plant.webp" width="1103" height="1426" xmlns:xlink="http://www.w3.org/1999/xlink" /></g></g></g><g clip-path="url(#ecbb9a9a8d)"><g mask="url(#9feb6b2571)"><g id="scene-layer-floor-lamp" data-scene-layer="floor-lamp" transform="matrix(.45042 0 0 .45048 2731.104 436.807)"><image xlink:href="/scene/layers/floor-lamp.webp" width="809" height="1944" xmlns:xlink="http://www.w3.org/1999/xlink" /></g></g></g><g clip-path="url(#b713c94fcb)"><g mask="url(#b08059f232)"><g id="scene-layer-character-reader" data-scene-layer="character-reader" transform="translate(2946.756 561.374)scale(.64035)"><image xlink:href="/scene/layers/character-reader.webp" width="1254" height="1254" xmlns:xlink="http://www.w3.org/1999/xlink" /></g></g></g><g clip-path="url(#83051fc767)"><g mask="url(#20877bba1a)"><g id="scene-layer-cat-right" data-scene-layer="cat-right" transform="matrix(.28817 0 0 .2884 3397.32 317.407)"><image xlink:href="/scene/layers/cat-right.webp" width="856" height="1838" xmlns:xlink="http://www.w3.org/1999/xlink" /></g></g></g><g clip-path="url(#d791b3a99b)"><g mask="url(#0300e878fa)"><g id="scene-layer-sideboard" data-scene-layer="sideboard" transform="matrix(.48236 0 0 .48188 2024.492 886.299)"><image xlink:href="/scene/layers/sideboard.webp" width="1615" height="974" xmlns:xlink="http://www.w3.org/1999/xlink" /></g></g></g><g clip-path="url(#930818587b)"><g mask="url(#5686e4f8b7)"><g id="scene-layer-camera" data-scene-layer="camera" transform="matrix(.18672 0 0 .18653 1193.507 148.387)"><image xlink:href="/scene/layers/camera.webp" width="1554" height="820" xmlns:xlink="http://www.w3.org/1999/xlink" /></g></g></g><g clip-path="url(#16b9132983)"><g mask="url(#6bc58e034b)"><g id="scene-layer-bookcase-base" data-scene-layer="bookcase-base" transform="matrix(.91663 0 0 .91645 874.006 221.168)"><image xlink:href="/scene/layers/bookcase-base.webp" width="1330" height="1183" xmlns:xlink="http://www.w3.org/1999/xlink" /></g></g></g><g clip-path="url(#a85e24c20c)"><g mask="url(#78851d6391)"><g id="scene-layer-bookcase-details" data-scene-layer="bookcase-details" transform="matrix(.91663 0 0 .91645 848.073 228.195)"><image xlink:href="/scene/layers/bookcase-details.webp" width="1330" height="1183" xmlns:xlink="http://www.w3.org/1999/xlink" /></g></g></g><g clip-path="url(#1af194a9f0)"><g mask="url(#9ff05ac880)"><g id="scene-layer-cabinet-plant" data-scene-layer="cabinet-plant" transform="matrix(.27173 0 0 .27133 2045.27 546.629)"><image xlink:href="/scene/layers/cabinet-plant.webp" width="1123" height="1401" xmlns:xlink="http://www.w3.org/1999/xlink" /></g></g></g><g clip-path="url(#758756b524)"><g mask="url(#3200338848)"><g id="scene-layer-bookcase-top-plant" data-scene-layer="bookcase-top-plant" transform="matrix(.19312 0 0 .1936 967.278 26.807)"><image xlink:href="/scene/layers/bookcase-top-plant.webp" width="1122" height="1402" xmlns:xlink="http://www.w3.org/1999/xlink" /></g></g></g></svg>